<svg id="Layer_1" xmlns="http://www.w3.org/2000/svg" viewBox="0 0 7016 1220"><style>.st0{fill:#d06f1a}.st1{fill:#696a6d}</style><path class="st0" d="M532 177C255.9 177 32 403 32 681.8s223.9 504.8 500 504.8 500-226 500-504.8S808.2 177 532 177zm-.4 1000.3C261 1177.3 41.7 955.6 41.7 682S261 186.7 531.6 186.7c270.5 0 489.9 221.8 489.9 495.3s-219.3 495.3-489.9 495.3z"/><path class="st0" d="M978.4 545l-2.2 1-.1-.1-11 4.9-3.1 1.3-81.9 36.2c86.9 56.3 78.9 152 71.1 191.6-1 3.7-1.9 7.1-2.8 9.8-57.6 168.7-214 289.7-398 289.7-232.9 0-421.7-193.9-421.7-433s188.8-433 421.7-433c7 0 14 .2 20.9.5l.2-1.4c-12.1-1-24.3-1.5-36.6-1.5-256.3 0-464 211.7-464 472.8s207.7 472.8 463.9 472.8 463.8-211.7 463.8-472.8c0-48.3-7.1-94.9-20.2-138.8M5006.8 750.8h205v221.1h-24.6V862.6h-1.2c-33.2 79.5-107.7 119.3-192 119.3-133.6 0-233.9-85.1-233.9-231.7 0-107.5 72.6-231.7 233.9-231.7 107.7 0 187.1 53.4 208.7 149.1h-28.3c-18.5-82-92.3-124.2-180.4-124.2-125.6 0-205.6 95-205.6 206.9 0 111.2 70.8 206.8 205.6 206.8 110.8 0 182.8-68.9 189.6-181.4h-176.7v-24.9zM5285.6 528.4h224.7c84.3 0 148.3 24.2 148.3 117.4 0 46-27.7 95.6-89.9 110v1.2c53.5 6.8 81.9 44.1 82.5 91.9 1.2 80.7 3.7 106.8 12.3 123h-28.3c-8-7.5-10.5-35.4-12.3-103.1-1.8-77-26.5-98.8-113.2-98.8h-195.8v201.9h-28.3V528.4zm28.3 216.8h191.4c27.7 0 124.9 0 124.9-101.2 0-72.1-55.4-90.7-117.5-90.7h-198.8v191.9zM5899.5 528.4h32l201.9 443.5h-32L6036.8 829h-242.5l-64.6 142.9h-32l201.8-443.5zm-94.1 275.8h220.3l-110.2-243.5-110.1 243.5zM6572.1 803.6c-9.9 84.5-84.3 178.3-216.1 178.3-133.6 0-233.9-85.1-233.9-231.7 0-107.5 72.7-231.7 233.9-231.7 105.9 0 186.5 50.3 208.7 149.1h-28.3c-20.9-85.1-97.8-124.2-180.3-124.2-125.6 0-205.6 95-205.6 206.9 0 111.2 70.8 206.8 205.6 206.8 97.2 0 171.1-57.1 187.7-153.4h28.3zM6631.2 528.4h347.2v24.9h-318.9v176.4h305.9v24.8h-305.9v192.6H6982v24.8h-350.8V528.4z"/><g><path class="st1" d="M1146.6 368.9h86.2v231h1.7c40.5-61.3 112-81.5 176.6-81.5 108.5 0 189.5 45.4 189.5 155.4v299.9h-86.1V690.6c0-64.7-41.4-101.7-133.5-101.7-78.4 0-148.2 44.5-148.2 131.1v253.7h-86.2V368.9zM1903.8 518.4c175.8 0 261.9 108.4 261.9 235.2 0 126.9-86.1 235.2-261.9 235.2-175.7 0-261.9-108.4-261.9-235.2 0-126.8 86.2-235.2 261.9-235.2zm0 70.6c-124.9 0-170.6 84.9-170.6 164.6 0 79.8 45.7 164.7 170.6 164.7 124.9 0 170.6-84.9 170.6-164.7 0-79.8-45.7-164.6-170.6-164.6zM2207 368.9h86.2v231h1.7c34.5-52.9 104.2-76.4 171.4-76.4 136.1 0 245.5 84.8 245.5 232.7 0 147.8-109.4 232.7-245.5 232.7-66.3 0-137.8-25.2-171.4-71.4h-1.7v56.3H2207V368.9zM2455.1 594c-100.8 0-167.1 61.3-167.1 162.1 0 83.2 50 162.1 167.1 162.1 116.3 0 165.4-79 165.4-162.1.1-100.8-65.4-162.1-165.4-162.1zM2995.3 518.4c175.8 0 261.9 108.4 261.9 235.2 0 126.9-86.1 235.2-261.9 235.2-175.7 0-261.9-108.4-261.9-235.2 0-126.8 86.2-235.2 261.9-235.2zm0 70.6c-124.9 0-170.6 84.9-170.6 164.6 0 79.8 45.7 164.7 170.6 164.7 124.9 0 170.6-84.9 170.6-164.7 0-79.8-45.7-164.6-170.6-164.6zM3620.7 533.5h131l-212 165.5L3768 973.8h-117.2l-180.1-220.1-79.2 61.3v158.8h-86.2V368.9h86.2v352.9l229.2-188.3z"/><path class="st1" d="M3837 778.8c6.9 90.8 89.6 139.4 166.3 139.4 49.1 0 116.3-15.9 145.6-78.1h91.3C4197 946 4096.3 988.9 4007.5 988.9c-175.7 0-261.9-108.4-261.9-235.2 0-126.8 86.1-235.2 261.9-235.2 118.9 0 244.7 67.2 244.7 249.5v10.9H3837zm323.9-65.5C4148 633.5 4084.2 589 4003.2 589c-79.3 0-150.8 45.4-163.7 124.3h321.4zM4296.1 533.5h86.2v66.4h1.7c40.5-61.3 112-81.5 176.6-81.5 108.6 0 189.5 45.4 189.5 155.4v299.9H4664V690.6c0-64.7-41.3-101.7-133.5-101.7-78.4 0-148.2 44.5-148.2 131.1v253.7h-86.2V533.5z"/></g><g><path class="st1" d="M206.4 414.9l763.2 120.4-104.8 44.4c-137.1-104-680.4-104.1-680.4-104.1s-8.2 2.6.9-17.2"/><path class="st1" d="M607.1 43.8L491.5 1053.9s-5.4 12.7 6.2 7.9c11.6-4.8 30.8-15.1 30.8-15.1s7.7-4.8 10-18.3S623.3 222.7 685 152.7c0 0 5.2-5.9 3.9-9.6-1.4-3.7-75.6-106.6-75.6-106.6s-7.7.1-6.2 7.3z"/></g></svg>